<svg width="16" height="16" viewBox="0 0 16 16" fill="none" xmlns="http://www.w3.org/2000/svg">
  <g clip-path="url(#clip0_8808_1317)">
    <path fill-rule="evenodd" clip-rule="evenodd" d="M0.418765 2.43528C0.0340956 3.09963 -0.0913672 3.88274 0.0665055 4.634C0.224378 5.38527 0.654438 6.05164 1.27398 6.50496C1.89351 6.95829 2.65878 7.16654 3.4226 7.08968C4.18642 7.01282 4.89485 6.65628 5.41165 6.08861L6.19654 6.54195C6.21876 6.62372 6.32721 6.64506 6.38321 6.58017C6.51713 6.42313 6.66528 6.27972 6.82765 6.14995C7.08188 5.9455 7.09432 5.51972 6.81165 5.35706L6.07832 4.93306C6.30766 4.20277 6.2598 3.41358 5.9439 2.71636C5.628 2.01913 5.06622 1.46279 4.36596 1.15369C3.66569 0.84459 2.87608 0.804414 2.14806 1.04084C1.42004 1.27727 0.804689 1.77372 0.419654 2.43528M2.2241 5.53039C2.02028 5.41451 1.8414 5.25946 1.69776 5.07417C1.55411 4.88887 1.44853 4.677 1.3871 4.45073C1.32567 4.22447 1.30961 3.98829 1.33983 3.75579C1.37005 3.5233 1.44596 3.29907 1.56319 3.09603C1.68041 2.89299 1.83665 2.71514 2.02289 2.57273C2.20913 2.43031 2.42171 2.32614 2.64837 2.26621C2.87504 2.20629 3.11132 2.19179 3.34361 2.22355C3.5759 2.25531 3.79962 2.33271 4.00188 2.45128C4.40687 2.6887 4.70151 3.07668 4.8215 3.53054C4.94149 3.98439 4.8771 4.46729 4.64236 4.87385C4.40763 5.2804 4.02162 5.57761 3.56857 5.70061C3.11552 5.82361 2.6322 5.76242 2.2241 5.53039ZM7.96276 6.49928C7.61968 6.64391 7.31416 6.86499 7.06953 7.14567C6.8249 7.42635 6.64761 7.75921 6.55121 8.11883L6.19743 9.43972L5.41165 9.89306C4.8939 9.32864 4.18619 8.97497 3.42397 8.89976C2.66176 8.82454 1.89857 9.03306 1.28049 9.48539C0.662403 9.93773 0.23284 10.6021 0.0740121 11.3514C-0.0848154 12.1007 0.0382499 12.8822 0.419654 13.5464C0.803045 14.211 1.4185 14.7105 2.14779 14.9489C2.87707 15.1873 3.66873 15.1478 4.37067 14.8381C5.07262 14.5283 5.63532 13.97 5.95069 13.2705C6.26605 12.5711 6.31182 11.7798 6.07921 11.0486L15.5725 5.56772C15.6864 5.50162 15.7782 5.40325 15.8363 5.28505C15.8943 5.16684 15.9161 5.03409 15.8988 4.90354C15.8815 4.77298 15.8259 4.65048 15.739 4.55148C15.6522 4.45249 15.538 4.38143 15.4108 4.34728L14.7859 4.17928C14.261 4.03886 13.7043 4.07733 13.2037 4.28861L7.96276 6.49928ZM1.57343 12.8797C1.45486 12.6775 1.37746 12.4537 1.3457 12.2215C1.31394 11.9892 1.32844 11.7529 1.38837 11.5262C1.44829 11.2996 1.55246 11.087 1.69488 10.9007C1.83729 10.7145 2.01514 10.5583 2.21818 10.441C2.42122 10.3238 2.64545 10.2479 2.87794 10.2177C3.11044 10.1875 3.34662 10.2035 3.57288 10.265C3.79915 10.3264 4.01102 10.432 4.19632 10.5756C4.38161 10.7193 4.53666 10.8981 4.65254 11.1019C4.88457 11.51 4.94576 11.9934 4.82276 12.4464C4.69976 12.8995 4.40255 13.2855 3.996 13.5202C3.58944 13.7549 3.10655 13.8193 2.65269 13.6993C2.19883 13.5794 1.81085 13.2847 1.57343 12.8797Z" fill="black"/>
    <path d="M10.2419 9.67101C10.1702 9.71236 10.1115 9.77292 10.0724 9.84584C10.0332 9.91877 10.0152 10.0012 10.0204 10.0838C10.0256 10.1664 10.0537 10.2459 10.1016 10.3134C10.1496 10.3808 10.2154 10.4336 10.2917 10.4657L13.2019 11.6932C13.7025 11.9045 14.2592 11.943 14.7841 11.8026L15.4099 11.6346C15.537 11.6002 15.651 11.529 15.7377 11.4299C15.8243 11.3308 15.8797 11.2082 15.8968 11.0777C15.9139 10.9472 15.8927 10.8144 15.8345 10.6962C15.7763 10.578 15.6847 10.4801 15.5707 10.4132L10.3298 8.20253C9.83029 7.99121 9.27358 7.9527 8.74868 8.09312L8.12279 8.26112C8.061 8.27768 8.00697 8.31095 7.96607 8.35766C7.92517 8.40436 7.89884 8.46243 7.8904 8.52428C7.88197 8.58613 7.89189 8.64975 7.91921 8.70763C7.94654 8.76552 7.99014 8.81497 8.04479 8.84901L9.46369 9.41205C9.52921 9.43656 9.59909 9.4442 9.66754 9.43418C9.73599 9.42416 9.79999 9.39701 9.85358 9.35518L11.8879 7.78144C11.9619 7.72704 12.0179 7.6516 12.0485 7.56484C12.0791 7.47808 12.083 7.38405 12.0598 7.29433C12.0366 7.20461 11.9872 7.12217 11.9171 7.05711C11.847 6.99205 11.7597 6.94697 11.6639 6.92832L9.14467 8.03635C8.98726 8.10349 8.84742 8.21237 8.73604 8.35351C8.62467 8.49466 8.54558 8.664 8.50528 8.84761C8.46498 9.03123 8.46512 9.22383 8.50562 9.40749C8.54611 9.59116 8.62541 9.76014 8.73729 9.90085C8.84917 10.0416 8.98943 10.1482 9.14433 10.2107L9.30633 10.768C9.33613 10.8779 9.38946 10.9776 9.46081 11.0581C9.53216 11.1385 9.61955 11.1962 9.71519 11.2251C9.81083 11.2541 9.91185 11.2536 10.008 11.2237C10.1041 11.1938 10.1916 11.1356 10.2624 11.0553L12.2867 9.48155C12.3607 9.42714 12.4167 9.35171 12.4473 9.26495C12.4779 9.17819 12.4818 9.08415 12.4586 8.99443C12.4354 8.90471 12.386 8.82227 12.3159 8.75721C12.2458 8.69215 12.1585 8.64707 12.0627 8.62842L9.54355 9.73642C9.38596 9.80359 9.24602 9.91249 9.13457 10.0537C9.02311 10.1948 8.94402 10.3641 8.90369 10.5477C8.86335 10.7314 8.86345 10.924 8.90396 11.1077C8.94447 11.2913 9.02377 11.4603 9.13565 11.601C9.24754 11.7417 9.38779 11.8483 9.54268 11.9109L9.70468 12.4682C9.73518 12.578 9.78841 12.6777 9.85964 12.7582C9.93087 12.8387 10.0183 12.8965 10.1138 12.9254C10.2094 12.9543 10.3103 12.9539 10.4063 12.924L12.9412 11.805L12.9516 11.8007L12.9612 11.7967L12.9679 11.794L12.974 11.7913C13.3548 11.6312 13.6986 11.3897 13.9874 11.0827C14.2762 10.7756 14.5029 10.4108 14.6547 10.0081C14.7549 9.73242 14.8034 9.43579 14.7972 9.13759C14.7911 8.83939 14.7304 8.54674 14.6191 8.27507L12.854 10.9945C12.6946 11.2715 12.4371 11.4885 12.1379 11.6032C11.8386 11.7178 11.5149 11.7219 11.2169 11.6145L9.79797 11.0515C9.73244 11.027 9.66255 11.0194 9.5941 11.0294C9.52565 11.0394 9.46165 11.0665 9.40806 11.1083L7.37377 12.682C7.29977 12.7364 7.2438 12.8119 7.21321 12.8987C7.18261 12.9855 7.17866 13.0796 7.20185 13.1693C7.22504 13.259 7.27436 13.3414 7.34449 13.4065C7.41463 13.4715 7.50194 13.5166 7.59777 13.5353C7.6936 13.5539 7.79368 13.5454 7.88418 13.5107L10.4034 12.4027C10.5608 12.3355 10.7006 12.2266 10.812 12.0854C10.9234 11.9443 11.0025 11.775 11.0428 11.5913C11.0832 11.4077 11.0831 11.2151 11.0426 11.0315C11.0021 10.8478 10.9228 10.6788 10.8109 10.5381C10.6991 10.3974 10.5588 10.2908 10.4039 10.2282L10.2419 9.67101Z" fill="black"/>
  </g>
  <defs>
    <clipPath id="clip0_8808_1317">
      <rect width="16" height="16" fill="white"/>
    </clipPath>
  </defs>
</svg>
